<svg width="40" height="40" viewBox="0 0 40 40" fill="none" xmlns="http://www.w3.org/2000/svg">
<path d="M20.0003 11.8407L7.35407 22.9927C7.26032 23.0772 7.14053 23.1165 7.03752 23.1866V33.8889C7.03752 34.1345 7.13508 34.37 7.30872 34.5436C7.48236 34.7173 7.71787 34.8148 7.96343 34.8148H32.0371C32.2826 34.8148 32.5181 34.7173 32.6918 34.5436C32.8654 34.37 32.963 34.1345 32.963 33.8889V23.1889C32.8646 23.1218 32.7477 23.0836 32.6586 23.0037L20.0003 11.8407ZM25.5557 26.9446C25.5557 27.0674 25.5069 27.1851 25.4201 27.272C25.3333 27.3588 25.2155 27.4076 25.0928 27.4076H21.8521V30.6482C21.8521 30.771 21.8033 30.8888 21.7165 30.9756C21.6297 31.0624 21.5119 31.1112 21.3891 31.1112H18.6114C18.4886 31.1112 18.3709 31.0624 18.284 30.9756C18.1972 30.8888 18.1484 30.771 18.1484 30.6482V27.4076H14.9078C14.785 27.4076 14.6672 27.3588 14.5804 27.272C14.4936 27.1851 14.4448 27.0674 14.4448 26.9446V24.1669C14.4448 24.0441 14.4936 23.9263 14.5804 23.8395C14.6672 23.7527 14.785 23.7039 14.9078 23.7039H18.1484V20.4632C18.1484 20.3405 18.1972 20.2227 18.284 20.1359C18.3709 20.0491 18.4886 20.0003 18.6114 20.0003H21.3891C21.5119 20.0003 21.6297 20.0491 21.7165 20.1359C21.8033 20.2227 21.8521 20.3405 21.8521 20.4632V23.7039H25.0928C25.2155 23.7039 25.3333 23.7527 25.4201 23.8395C25.5069 23.9263 25.5557 24.0441 25.5557 24.1669V26.9446ZM36.3593 18.8591L21.5483 5.78064C21.1243 5.39737 20.5732 5.18517 20.0017 5.18517C19.4302 5.18517 18.8791 5.39737 18.4551 5.78064L3.6406 18.8591C3.5501 18.9404 3.4765 19.0387 3.424 19.1484C3.37151 19.2581 3.34114 19.3771 3.33464 19.4985C3.32813 19.62 3.34562 19.7415 3.38611 19.8562C3.42659 19.9709 3.48927 20.0765 3.57057 20.1669L4.80956 21.5454C4.89082 21.6359 4.98911 21.7095 5.09883 21.762C5.20854 21.8145 5.32752 21.8449 5.44897 21.8514C5.57043 21.8579 5.69197 21.8404 5.80666 21.7999C5.92135 21.7594 6.02694 21.6967 6.1174 21.6154L19.388 9.90961C19.5572 9.76038 19.775 9.67803 20.0005 9.67803C20.2261 9.67803 20.4439 9.76038 20.6131 9.90961L33.8837 21.6148C33.9741 21.6961 34.0797 21.7588 34.1944 21.7993C34.3091 21.8398 34.4307 21.8573 34.5521 21.8508C34.6736 21.8443 34.7925 21.8139 34.9023 21.7614C35.012 21.7089 35.1103 21.6353 35.1915 21.5448L36.4299 20.1664C36.5939 19.9836 36.6785 19.7433 36.6653 19.4981C36.6521 19.253 36.542 19.0231 36.3593 18.8591Z" fill="#EF4444"/>
</svg>
