<svg width="40" height="40" viewBox="0 0 40 40" fill="none" xmlns="http://www.w3.org/2000/svg">
<path d="M20.6549 16.8759L30.4166 20.3622V34.5843C30.4166 34.8605 30.3069 35.1255 30.1115 35.3208C29.9162 35.5162 29.6512 35.6259 29.375 35.6259H25.2083C24.932 35.6259 24.6671 35.5162 24.4717 35.3208C24.2764 35.1255 24.1666 34.8605 24.1666 34.5843V27.2926H13.75V34.5843C13.75 34.8605 13.6402 35.1255 13.4449 35.3208C13.2495 35.5162 12.9846 35.6259 12.7083 35.6259H8.54165C8.26538 35.6259 8.00043 35.5162 7.80508 35.3208C7.60973 35.1255 7.49998 34.8605 7.49998 34.5843V20.6578C5.08071 19.7952 3.33331 17.5048 3.33331 14.7926C3.33331 14.24 3.55281 13.7101 3.94351 13.3194C4.33421 12.9287 4.86411 12.7092 5.41665 12.7092C5.96918 12.7092 6.49908 12.9287 6.88979 13.3194C7.28049 13.7101 7.49998 14.24 7.49998 14.7926C7.50101 15.3448 7.72084 15.8741 8.11131 16.2646C8.50179 16.6551 9.0311 16.8749 9.58331 16.8759H20.6549ZM36.6666 9.58425V11.6676C36.6666 12.7727 36.2277 13.8325 35.4463 14.6139C34.6649 15.3953 33.605 15.8342 32.5 15.8342H30.4166V18.1507L22.0833 15.1747V5.41758C22.0833 4.48985 23.2044 4.025 23.8613 4.68125L25.6373 6.45925H29.1289C29.8392 6.45925 30.6751 6.97487 30.9922 7.61094L31.4583 8.54258H35.625C35.9012 8.54258 36.1662 8.65233 36.3615 8.84768C36.5569 9.04303 36.6666 9.30798 36.6666 9.58425ZM29.375 9.58425C29.375 9.37823 29.3139 9.17683 29.1994 9.00553C29.085 8.83423 28.9223 8.70072 28.7319 8.62187C28.5416 8.54303 28.3322 8.5224 28.1301 8.5626C27.928 8.60279 27.7424 8.702 27.5967 8.84768C27.4511 8.99336 27.3519 9.17897 27.3117 9.38103C27.2715 9.58309 27.2921 9.79254 27.3709 9.98288C27.4498 10.1732 27.5833 10.3359 27.7546 10.4504C27.9259 10.5648 28.1273 10.6259 28.3333 10.6259C28.6096 10.6259 28.8745 10.5162 29.0699 10.3208C29.2652 10.1255 29.375 9.86052 29.375 9.58425Z" fill="#EF4444"/>
</svg>
