<svg width="40" height="40" viewBox="0 0 40 40" fill="none" xmlns="http://www.w3.org/2000/svg">
<path d="M19.558 13.7641L8.88931 22.551V32.0347C8.88931 32.2802 8.98685 32.5157 9.16048 32.6893C9.33412 32.863 9.56961 32.9605 9.81516 32.9605L16.2996 32.9437C16.5444 32.9425 16.7787 32.8444 16.9513 32.6709C17.1239 32.4974 17.2208 32.2626 17.2208 32.0179V26.4795C17.2208 26.234 17.3184 25.9985 17.492 25.8249C17.6656 25.6512 17.9011 25.5537 18.1467 25.5537H21.8501C22.0957 25.5537 22.3312 25.6512 22.5048 25.8249C22.6784 25.9985 22.776 26.234 22.776 26.4795V32.0138C22.7756 32.1357 22.7993 32.2564 22.8456 32.369C22.892 32.4817 22.9601 32.5841 23.0461 32.6704C23.1321 32.7567 23.2343 32.8251 23.3468 32.8718C23.4594 32.9185 23.58 32.9426 23.7018 32.9426L30.184 32.9605C30.4295 32.9605 30.665 32.863 30.8386 32.6893C31.0123 32.5157 31.1098 32.2802 31.1098 32.0347V22.5447L20.4434 13.7641C20.318 13.663 20.1618 13.6079 20.0007 13.6079C19.8397 13.6079 19.6834 13.663 19.558 13.7641ZM36.4103 19.7364L31.5727 15.7489V7.73388C31.5727 7.54972 31.4996 7.3731 31.3694 7.24287C31.2391 7.11265 31.0625 7.03949 30.8784 7.03949H27.6379C27.4537 7.03949 27.2771 7.11265 27.1469 7.24287C27.0166 7.3731 26.9435 7.54972 26.9435 7.73388V11.9355L21.7627 7.67312C21.2656 7.264 20.6417 7.04031 19.9978 7.04031C19.354 7.04031 18.7301 7.264 18.2329 7.67312L3.58532 19.7364C3.515 19.7945 3.45683 19.8659 3.41412 19.9466C3.37141 20.0272 3.345 20.1154 3.3364 20.2062C3.32781 20.297 3.33719 20.3887 3.36401 20.4758C3.39083 20.563 3.43457 20.6441 3.49273 20.7144L4.96831 22.5082C5.02631 22.5787 5.09765 22.6371 5.17825 22.68C5.25885 22.723 5.34712 22.7496 5.43801 22.7583C5.5289 22.7671 5.62062 22.7578 5.70793 22.7311C5.79524 22.7044 5.87642 22.6607 5.94683 22.6025L19.558 11.3916C19.6834 11.2905 19.8397 11.2354 20.0007 11.2354C20.1618 11.2354 20.318 11.2905 20.4434 11.3916L34.0552 22.6025C34.1255 22.6607 34.2065 22.7044 34.2937 22.7312C34.3809 22.7581 34.4725 22.7675 34.5633 22.7589C34.6542 22.7503 34.7424 22.7238 34.823 22.6811C34.9036 22.6384 34.975 22.5803 35.0331 22.5099L36.5087 20.7161C36.5668 20.6454 36.6104 20.5639 36.6369 20.4764C36.6634 20.3888 36.6723 20.2969 36.6632 20.2058C36.654 20.1148 36.627 20.0264 36.5836 19.9459C36.5402 19.8653 36.4813 19.7942 36.4103 19.7364Z" fill="#EF4444"/>
</svg>
