<svg width="100" height="100" viewBox="0 0 100 100" fill="none" xmlns="http://www.w3.org/2000/svg">
<path d="M36.0548 3.96095C35.1876 4.07813 34.1095 4.51564 33.2892 5.07033C30.6406 6.87502 28.8125 10.7266 28.1875 15.8203C28.0313 17.1172 28.0547 20.8359 28.2266 22.2656C28.875 27.5469 30.5938 32.0156 33.2266 35.2813C34.1718 36.4531 35.3984 37.5 36.5626 38.1485C37.6485 38.7502 39.2344 39.1249 40.2813 39.0311C42.8594 38.7967 45.1249 36.9531 46.6485 33.8593C47.9531 31.1953 48.6249 27.8672 48.6171 24.0625C48.6095 21.0078 48.1954 18.1563 47.3436 15.3203C45.6564 9.7344 42.4689 5.53908 38.9843 4.31249C37.9921 3.96095 36.9453 3.83593 36.0548 3.96095Z" fill="#EFEFEF"/>
<path d="M64.6639 4.34376C62.8282 4.74218 61.2423 5.6875 59.5311 7.41405C58.0548 8.90625 56.8905 10.5703 55.7734 12.8125C54.2344 15.8984 53.3361 18.9687 52.8751 22.7344C52.7187 23.9922 52.7423 27.8594 52.9062 28.9609C53.578 33.4062 55.2187 36.4688 57.7033 37.9219C57.9688 38.0701 58.5157 38.3124 58.9141 38.4531C59.6095 38.6954 59.7108 38.7033 60.7813 38.7108C62.117 38.7108 62.6954 38.578 63.9452 37.9767C66.6954 36.6485 69.1718 33.8829 71.0626 30.0391C72.5 27.1094 73.422 24.0312 73.8672 20.7031C74.039 19.3984 74.1095 16.4609 73.9921 15.1797C73.4531 9.22654 71.078 5.29687 67.4689 4.375C66.7266 4.1875 65.4689 4.17186 64.6639 4.34376Z" fill="#EFEFEF"/>
<path d="M16.1719 25.4765C13.3984 26.1953 11.2656 28.6719 10.3594 32.2265C9.9453 33.8436 9.89062 34.4062 9.88281 36.797C9.88281 38.7734 9.90626 39.1485 10.0625 40.1095C10.8828 44.9688 12.8906 49.2108 15.8125 52.2502C17.9531 54.4688 20.1016 55.6639 22.4765 55.9374C24.6172 56.1875 26.6797 55.4062 28.2109 53.7656C31.6016 50.1406 32.2109 43.0236 29.7109 36.3282C27.5781 30.6172 23.5703 26.375 19.4531 25.4609C18.5312 25.2578 16.9766 25.2656 16.1719 25.4765Z" fill="#EFEFEF"/>
<path d="M80.586 27.3438C76.4768 28.2812 72.4768 32.3906 70.2814 37.9298C69.2033 40.6718 68.6955 43.0626 68.6171 45.8282C68.5702 47.578 68.6486 48.6407 68.9453 50.1249C69.7345 54.0311 71.8751 56.7187 74.8361 57.5157C75.5469 57.7108 77.1876 57.7423 77.9299 57.5859C80.1719 57.117 82.0781 55.9767 84.1096 53.8984C88.9374 48.9452 91.3125 40.3829 89.6407 33.9843C88.7109 30.4219 86.6017 28.0156 83.8125 27.3438C82.961 27.1406 81.4843 27.1406 80.586 27.3438Z" fill="#EFEFEF"/>
<path d="M47.3361 43.0079C43.9298 43.539 40.1718 45.5859 35.9298 49.2265C31.9219 52.6564 26.9766 58.6718 23.4609 64.3751C20.75 68.7656 17.9531 74.7344 16.8516 78.4764C15.0859 84.4298 15.1797 88.7029 17.1328 91.5626C17.5391 92.1485 18.7422 93.3436 19.5391 93.9452C21.4844 95.4062 23.8203 96.3436 26.6016 96.7656C27.8985 96.961 31.125 96.9689 32.7344 96.7734C35.9843 96.383 38.2734 95.8515 44.1407 94.1639C45.7108 93.7187 47.6406 93.1797 48.4374 92.9843C49.8751 92.6249 49.8905 92.6171 51.1718 92.6249C53.0311 92.6249 53.5311 92.7813 57.7734 94.6328C61.0938 96.078 62.7656 96.6564 64.6485 97C65.8046 97.2108 67.961 97.1954 69.039 96.961C71.3282 96.4764 73.5548 95.3593 75.5469 93.6875C76.461 92.922 78.2577 91.0859 78.8125 90.3515C80.1407 88.5938 80.6875 86.1718 80.4688 83.0469C80.1718 78.7498 78.6875 74 75.7502 67.9298C72.0311 60.2577 66.1954 52.4767 60.8203 48.0079C57.3125 45.0938 53.961 43.3751 50.9921 42.9767C50.1639 42.8593 48.1639 42.8829 47.3361 43.0079ZM44.8672 49.578C45.422 50.078 45.539 50.2502 45.5469 50.6016C45.5469 50.8046 45.6016 50.8751 45.8984 51.0547C46.2033 51.2265 46.3046 51.2502 46.617 51.2033C46.9531 51.1564 46.9921 51.1639 47.1564 51.3751L47.3361 51.5938L47.5157 51.4298C47.9374 51.0469 48.539 50.8905 49.2577 50.9767C49.6639 51.0311 49.6954 51.0469 49.6564 51.2033C49.6249 51.2892 49.5702 51.6797 49.5311 52.0547C49.4531 52.7577 49.3593 53.039 49.1639 53.1485C49.0859 53.1954 49.078 53.2423 49.1407 53.3124C49.1954 53.3905 49.1875 53.4452 49.1095 53.5079C49.0469 53.5547 49.0157 53.6639 49.039 53.7502C49.0626 53.8361 49.0079 53.9921 48.9141 54.1095C48.8203 54.2265 48.7502 54.3751 48.7502 54.4452C48.7502 54.5157 48.6875 54.6639 48.617 54.7656C48.539 54.8751 48.4843 54.9767 48.4921 55C48.4921 55.0233 48.4688 55.0311 48.422 55.0157C48.3829 55.0079 48.3282 55.0626 48.3046 55.1485C48.2813 55.2266 48.1328 55.3515 47.9531 55.4141C47.7813 55.4843 47.6639 55.578 47.6954 55.6249C47.7502 55.7187 48.9452 55.7265 50.6095 55.6485L51.7187 55.6016L52.1875 55.1485C52.9688 54.3984 53.4921 54.4298 53.9062 55.2577C54.1639 55.7813 54.1954 55.9374 54.0311 55.9374C53.9374 55.9374 53.9298 55.9921 53.9921 56.1875C54.0938 56.5626 54.0859 56.578 53.8593 56.4298L53.6564 56.2967L53.7108 56.5469C53.7502 56.7423 53.7344 56.7967 53.6407 56.7967C53.4452 56.7967 53.4921 56.922 53.7734 57.1407C53.9767 57.3046 54 57.3593 53.9062 57.422C53.7656 57.5079 53.7734 57.5079 54.2577 57.7577L54.6407 57.9452L54.3905 58.0079C54.1016 58.0702 54.0702 58.1718 54.3046 58.2423C54.4298 58.2813 54.4452 58.3125 54.3751 58.3593C54.3203 58.3905 54.2967 58.4688 54.3125 58.5233C54.3361 58.5859 54.3282 58.6875 54.2892 58.7577C54.2502 58.8436 54.3436 59.0547 54.617 59.461C54.922 59.9141 54.9767 60.0469 54.8751 60.0626C54.7892 60.0859 54.7577 60.1485 54.7892 60.2813C54.8282 60.4921 54.8125 60.5 54.6095 60.3905C54.4689 60.3125 54.4688 60.3203 54.578 60.5859C54.6564 60.7734 54.6639 60.8593 54.6016 60.8593C54.5548 60.8593 54.539 60.9141 54.5626 60.9767C54.5859 61.039 54.6328 61.1485 54.6564 61.2108C54.6954 61.3125 54.6718 61.3203 54.4921 61.2498C54.3829 61.2108 54.2656 61.1718 54.2423 61.1718C54.2187 61.1718 54.3125 61.3672 54.4452 61.6016C54.578 61.8361 54.6875 62.0469 54.6875 62.0626C54.6875 62.078 54.5702 62.0859 54.4374 62.078C54.1954 62.0702 54.1797 62.0859 54.1875 62.3436C54.1875 62.4921 54.2187 62.6797 54.2577 62.7656C54.3125 62.8905 54.3046 62.8984 54.1485 62.8125C53.9141 62.6954 53.8905 62.7266 53.9843 63.0547C54.0311 63.1954 54.0626 63.3436 54.0626 63.3672C54.0626 63.461 53.4374 63.7344 53.3905 63.6639C53.2967 63.5079 53.2187 63.6095 53.1718 63.9374C53.0859 64.5 52.9921 64.5702 52.3436 64.5626C51.5547 64.5547 51.4767 64.461 51.8361 63.9062C52.1639 63.3905 52.2344 63.0859 52.1249 62.5548C51.9921 61.9062 51.8905 61.6875 51.7656 61.7892C51.6797 61.8593 51.6485 61.8436 51.617 61.7187C51.5938 61.617 51.5311 61.578 51.461 61.6095C51.3829 61.6328 51.3203 61.5938 51.2892 61.4767C51.2344 61.3203 51.2266 61.3125 51.1564 61.4374C51.1016 61.539 51.0548 61.5469 50.9767 61.4843C50.8984 61.4141 50.8593 61.4374 50.8203 61.5626C50.7892 61.6564 50.7187 61.7108 50.6639 61.6875C50.539 61.6407 50.3125 61.8751 50.3125 62.0547C50.3125 62.1328 50.2734 62.1639 50.1954 62.1407C50.1016 62.1016 50.078 62.1875 50.078 62.6407C50.078 63.1639 50.0702 63.1797 49.8905 63.1485C49.7423 63.117 49.6564 63.1797 49.4452 63.4767C49.1407 63.8984 48.8751 64.0626 48.4767 64.0626C48.1875 64.0626 47.5 63.9141 47.5 63.8515C47.5 63.7187 47.7813 63.3282 48.0079 63.1564C48.1564 63.0469 48.2813 62.8984 48.2813 62.8361C48.2813 62.7734 48.2423 62.7498 48.1954 62.7734C48.1485 62.8046 48.0626 62.7656 48 62.6875C47.8984 62.5469 47.8905 62.5469 47.8436 62.7187C47.8125 62.8282 47.7502 62.8829 47.6875 62.8593C47.6328 62.8361 47.5626 62.8905 47.539 62.9688C47.5079 63.0626 47.4452 63.1016 47.3672 63.0702C47.2656 63.0311 47.2502 63.0547 47.2813 63.1875C47.3125 63.3046 47.2967 63.3593 47.2187 63.3593C47.1407 63.3593 47.1095 63.4767 47.1095 63.8282C47.1095 64.1797 47.0859 64.2967 47 64.2967C46.9141 64.2967 46.8984 64.3515 46.9531 64.5311C47.0157 64.7498 47.0079 64.7656 46.8672 64.7266C46.7577 64.6875 46.6639 64.7344 46.5548 64.8751C46.4062 65.0702 46.3593 65.078 45.6797 65.078C45.2813 65.078 44.8282 65.039 44.6718 65L44.3829 64.9141V64.3984C44.3829 63.9141 44.3984 63.8751 44.6564 63.6328C44.8672 63.4374 44.922 63.3203 44.922 63.0938C44.922 62.8751 44.8905 62.8125 44.7734 62.8125C44.6639 62.8125 44.6406 62.7656 44.6718 62.617C44.6954 62.4767 44.6718 62.422 44.578 62.422C44.4298 62.422 44.422 62.3515 44.5311 62.078C44.6095 61.8515 44.5311 61.8046 44.3751 61.9921C44.2033 62.1954 44.1797 62.1249 44.2033 61.5626C44.2344 60.9843 44.1718 60.8905 43.961 61.1875C43.8361 61.3672 43.8361 61.3672 43.8361 61.1016C43.8282 60.8672 43.8125 60.8515 43.6954 60.9452C43.578 61.039 43.5702 61.039 43.617 60.9141C43.6485 60.8361 43.6954 60.6249 43.7187 60.4452L43.7656 60.117L43.6016 60.3125L43.4374 60.5079V60.2813C43.4374 60.0859 43.4141 60.0626 43.2344 60.1095C43.0548 60.1564 43.0311 60.1407 43.0702 60.0079C43.117 59.8203 43.0938 59.8125 42.8829 59.922C42.7108 60.0157 42.6954 59.9767 42.8125 59.7577C42.8829 59.6328 42.8672 59.6095 42.7502 59.6095C42.6016 59.6095 42.6016 59.461 42.7734 58.4921C42.7967 58.3361 42.7734 58.2813 42.6875 58.2813C42.539 58.2813 42.539 58.2734 42.922 57.7187C43.1797 57.3361 43.2108 57.2502 43.1249 57.1485C43.039 57.0469 43.0626 56.9843 43.2813 56.7577C43.5079 56.5233 43.5311 56.461 43.4843 56.1954C43.4531 56.0311 43.4141 55.7656 43.3905 55.6016C43.3593 55.3984 43.3046 55.3125 43.2108 55.3125C43.0236 55.3125 42.8905 55.1564 42.8905 54.9452C42.8905 54.8436 42.8515 54.7656 42.8125 54.7656C42.7656 54.7656 42.7502 54.6406 42.7813 54.4374C42.8361 54.1406 42.8282 54.117 42.6718 54.1564C42.5311 54.1954 42.5469 54.1485 42.7892 53.7813C42.9452 53.5469 43.0547 53.3361 43.0311 53.3203C43.0079 53.2967 42.8984 53.3125 42.7813 53.3515L42.578 53.4298L42.8125 53.0157C42.9452 52.7892 43.0469 52.578 43.0469 52.5547C43.0469 52.5233 42.961 52.5 42.8515 52.5C42.6639 52.5 42.6797 52.4767 43.039 52.1564C43.3672 51.8672 43.4062 51.8046 43.2734 51.7734C43.078 51.7187 43.0547 51.2502 43.2502 51.2502C43.3515 51.2502 43.3593 51.2033 43.3046 50.9921C43.2734 50.8593 43.2423 50.6016 43.2502 50.4374C43.2502 50.1564 43.3046 50.078 43.7813 49.6328C44.078 49.3593 44.3282 49.1406 44.3515 49.1406C44.3751 49.1406 44.6095 49.3361 44.8672 49.578ZM40.4298 71.1249C42.461 71.6875 43.3905 73.1016 43.5626 75.8984C43.6875 77.9531 43.2423 79.7813 42.3905 80.6875C41.6718 81.4531 40.7577 81.7734 39.1016 81.8436C38.1095 81.8905 35.2813 81.7108 35.1718 81.6016C35.1407 81.5702 35.117 79.2498 35.117 76.4374C35.117 72.1564 35.1328 71.3125 35.2266 71.2577C35.2892 71.2187 35.7423 71.1485 36.2423 71.0938C36.7423 71.0469 37.2033 70.9921 37.2656 70.9767C37.6095 70.8905 40 71.0079 40.4298 71.1249ZM50.1954 71.1328C51.8203 71.5626 52.6954 72.5079 53.1016 74.2577C53.3046 75.1485 53.3046 77.5079 53.1016 78.3984C52.5469 80.8203 50.8672 82.0938 48.4767 81.922C46.1564 81.7577 44.922 80.8282 44.4141 78.8672C44.2423 78.1797 44.1249 76.7108 44.1875 75.8593C44.3672 73.1485 45.3905 71.6095 47.3593 71.0547C47.8829 70.9062 49.5236 70.9531 50.1954 71.1328ZM60.2734 71.1249C60.9298 71.3046 61.3046 71.5157 61.7344 71.9298C62.3829 72.5626 62.6485 73.4921 62.6564 75.078C62.6639 76.6407 62.4374 77.4531 61.7892 78.1639C61.1249 78.8905 60.2344 79.2187 58.617 79.3361L57.8905 79.3905V80.6328V81.8751H56.1875C54.9688 81.8751 54.461 81.8515 54.3905 81.7813C54.3203 81.7108 54.2967 80.422 54.2967 76.4688V71.2498L54.4767 71.2108C55.6249 70.9298 59.3672 70.8751 60.2734 71.1249ZM32.1328 71.0859C32.2969 71.1485 32.3359 71.2577 32.4844 71.9688C32.5781 72.4062 32.9141 74.0702 33.2423 75.6485C33.7656 78.2033 34.3751 81.5079 34.3751 81.7734C34.3751 81.8984 31.2422 81.922 31.0156 81.7967C30.9063 81.7423 30.8359 81.4921 30.7031 80.7813L30.5234 79.8436H29.6797C28.9219 79.8436 28.8281 79.8593 28.8281 79.9764C28.8281 80.0547 28.7578 80.5157 28.6641 80.9921L28.5 81.8751H26.8281C25.3125 81.8751 25.1485 81.8593 25.1016 81.7423C25.0703 81.6639 25.125 81.1328 25.2266 80.5469C25.5078 78.8282 27.0469 71.2187 27.1328 71.1095C27.2266 70.9921 31.8281 70.9688 32.1328 71.0859ZM70.9843 71.117C71.0938 71.2266 71.1249 73.7813 71.0233 73.9764C70.9374 74.1328 70.8751 74.1407 69.8984 74.1407H68.8672L68.8905 75.8751C68.8984 76.8361 68.8829 78.5626 68.8515 79.7266L68.7892 81.8361L67.1095 81.8515C66.1639 81.8672 65.383 81.8436 65.3125 81.8046C65.2187 81.7423 65.1954 81.1485 65.1718 77.9452L65.1407 74.1564L64.8515 74.1095C64.6954 74.0859 64.2344 74.0626 63.8203 74.0626C63.2033 74.0626 63.0548 74.039 63.0157 73.9374C62.9531 73.7656 62.9531 71.1328 63.0236 71.0626C63.1016 70.9921 70.9141 71.039 70.9843 71.117Z" fill="#EFEFEF"/>
<path d="M38.6718 76.4452V78.8282H38.9688C39.6249 78.8282 39.8045 78.3125 39.7967 76.4452C39.7891 74.5702 39.617 74.0626 38.9688 74.0626H38.6718V76.4452Z" fill="#EFEFEF"/>
<path d="M48.2891 74.2108C48.0232 74.4767 47.9452 74.9688 47.9373 76.3672C47.9298 78.3203 48.1249 78.8672 48.7891 78.8125C49.3905 78.7656 49.5701 78.0859 49.5157 76.0938C49.4688 74.4531 49.3046 74.0626 48.6796 74.0626C48.5469 74.0626 48.3672 74.1328 48.2891 74.2108Z" fill="#EFEFEF"/>
<path d="M57.8125 75.1954V76.4062H58.125C58.8361 76.4062 59.0233 76.117 59.0233 75.0157C59.0233 74.3436 59.0079 74.2734 58.8361 74.1328C58.7109 74.0311 58.5312 73.9843 58.2345 73.9843H57.8125V75.1954Z" fill="#EFEFEF"/>
<path d="M29.5937 73.7502C29.5625 73.8125 29.4687 74.6249 29.375 75.5469C29.2812 76.4689 29.1875 77.2892 29.164 77.3593C29.1328 77.4843 29.1953 77.5 29.6484 77.5H30.164L30.1171 77.0859C29.914 75.4843 29.625 73.6564 29.5937 73.7502Z" fill="#EFEFEF"/>
<path d="M72.7869 68.8525H23.9344V88.5246H72.7869V68.8525Z" fill="#EFEFEF"/>
<path d="M58.6885 48.5246H38.6885V68.1967H58.6885V48.5246Z" fill="#EFEFEF"/>
<path d="M48.0328 82.2951C47.6531 82.2945 47.2824 82.1703 46.9688 81.9384C42.3235 78.522 40.3121 76.1795 39.2026 74.715C36.8383 71.5932 35.7064 68.3882 35.7383 64.9174C35.7756 60.94 38.7209 57.7049 42.304 57.7049C44.9095 57.7049 46.7141 59.2949 47.765 60.6192C47.7983 60.6607 47.8394 60.694 47.8856 60.7169C47.9318 60.7397 47.982 60.7515 48.0328 60.7515C48.0835 60.7515 48.1337 60.7397 48.1799 60.7169C48.2261 60.694 48.2672 60.6607 48.3005 60.6192C49.3514 59.2937 51.156 57.7049 53.7615 57.7049C57.3446 57.7049 60.2899 60.94 60.3272 64.918C60.3591 68.3894 59.226 71.5945 56.8629 74.7157C55.7534 76.1802 53.742 78.5226 49.0967 81.939C48.7831 82.1707 48.4123 82.2947 48.0328 82.2951V82.2951Z" fill="#FF5252"/>
</svg>
