<svg width="50" height="50" viewBox="0 0 50 50" fill="none" xmlns="http://www.w3.org/2000/svg">
<path d="M40.0625 31.7917L34.7709 31.1875C33.5 31.0417 32.25 31.4792 31.3542 32.375L27.5209 36.2083C21.625 33.2083 16.7917 28.3958 13.7917 22.4792L17.6459 18.625C18.5417 17.7292 18.9792 16.4792 18.8334 15.2083L18.2292 9.95833C17.9792 7.85416 16.2084 6.27083 14.0834 6.27083H10.4792C8.12502 6.27083 6.16669 8.22916 6.31252 10.5833C7.41669 28.375 21.6459 42.5833 39.4167 43.6875C41.7709 43.8333 43.7292 41.875 43.7292 39.5208V35.9167C43.75 33.8125 42.1667 32.0417 40.0625 31.7917V31.7917Z" fill="#2D3436"/>
</svg>
