<svg width="31" height="19" viewBox="0 0 31 19" fill="none" xmlns="http://www.w3.org/2000/svg">
<path d="M28.5215 19H1.87847C0.911338 19 0.19014 18.1087 0.391921 17.1629L2.17539 8.80288C2.32504 8.1014 2.94468 7.60001 3.66194 7.60001H26.7381C27.4553 7.60001 28.075 8.1014 28.2246 8.80288L30.0081 17.1629C30.2099 18.1087 29.4887 19 28.5215 19Z" fill="#EF4444"/>
<path d="M5 6.08002C5 5.23132 5.33714 4.41739 5.93726 3.81727C6.53738 3.21715 7.35132 2.88 8.20001 2.88C9.04871 2.88 9.86264 3.21715 10.4628 3.81727C11.0629 4.41739 11.4 5.23132 11.4 6.08002L8.20001 6.08002L5 6.08002Z" fill="#EF4444"/>
<path d="M11.4 6.08C11.4 5.07218 11.8004 4.10564 12.513 3.393C13.2256 2.68036 14.1922 2.28001 15.2 2.28C16.2078 2.28 17.1744 2.68036 17.887 3.393C18.5996 4.10564 19 5.07218 19 6.08L15.2 6.08L11.4 6.08Z" fill="#EF4444"/>
<path d="M19 6.08C19 5.15174 19.3687 4.2615 20.0251 3.60512C20.6815 2.94874 21.5717 2.57999 22.5 2.57999C23.4282 2.57999 24.3185 2.94874 24.9749 3.60512C25.6312 4.2615 26 5.15174 26 6.08L22.5 6.08L19 6.08Z" fill="#EF4444"/>
<path d="M15.2 6.08C15.2 5.07218 15.6003 4.10564 16.313 3.393C17.0256 2.68036 17.9922 2.28001 19 2.28C20.0078 2.28 20.9744 2.68036 21.687 3.393C22.3996 4.10564 22.8 5.07218 22.8 6.08L19 6.08L15.2 6.08Z" fill="#EF4444"/>
<path d="M7.60001 6.08C7.60001 5.07218 8.00037 4.10564 8.71301 3.393C9.42564 2.68036 10.3922 2.28001 11.4 2.28C12.4078 2.28 13.3744 2.68036 14.087 3.393C14.7997 4.10564 15.2 5.07218 15.2 6.08L11.4 6.08L7.60001 6.08Z" fill="#EF4444"/>
<path d="M8.36002 3.80001C8.36002 2.79218 8.76038 1.82564 9.47302 1.113C10.1857 0.400362 11.1522 6.27497e-06 12.16 6.19888e-06C13.1678 6.12279e-06 14.1344 0.400362 14.847 1.113C15.5597 1.82564 15.96 2.79218 15.96 3.80001L12.16 3.80001L8.36002 3.80001Z" fill="#EF4444"/>
<path d="M12.16 4.55999C12.16 3.55216 12.5604 2.58562 13.273 1.87298C13.9856 1.16034 14.9522 0.759986 15.96 0.759985C16.9678 0.759985 17.9344 1.16034 18.647 1.87298C19.3597 2.58562 19.76 3.55216 19.76 4.55998L15.96 4.55999L12.16 4.55999Z" fill="#EF4444"/>
<path d="M16 4.14C16 3.30722 16.3308 2.50855 16.9197 1.91969C17.5085 1.33083 18.3072 1.00001 19.14 1.00001C19.9728 1.00001 20.7714 1.33083 21.3603 1.91969C21.9491 2.50855 22.28 3.30722 22.28 4.14L19.14 4.14L16 4.14Z" fill="#EF4444"/>
</svg>
